# AssetId: 3DStick001
# Name: 3D Stick 001
# Author: ambientCG
# Tags: 1,3d,stick
o 3DStick001_LQ-1K-JPG
v -0.051001 -0.004826 -0.011582
v -0.051853 -0.009263 -0.008660
v -0.059314 -0.009737 -0.007712
v -0.058495 -0.004772 -0.009298
v -0.061168 -0.005762 -0.010714
v -0.060776 -0.001050 -0.012786
v -0.045238 -0.000276 -0.012988
v -0.052903 0.004505 -0.012543
v -0.063181 0.003454 -0.011827
v -0.062473 -0.000252 -0.010636
v -0.058351 0.003630 -0.010480
v -0.050944 -0.011992 -0.003747
v -0.054785 -0.010778 -0.005556
v -0.045685 -0.011027 -0.005581
v -0.056680 -0.008044 0.001232
v -0.058802 -0.006697 -0.004934
v -0.047965 -0.010053 -0.001877
v -0.042675 -0.008922 0.003310
v -0.055811 0.008670 0.000176
v -0.056827 0.010421 0.003763
v -0.061291 0.009851 0.001495
v -0.050990 0.008103 0.002445
v -0.063415 0.010925 -0.000485
v -0.060527 0.012910 -0.001771
v -0.060335 0.007139 -0.008400
v -0.062142 0.008892 -0.008606
v -0.049268 0.009391 -0.008550
v -0.057193 0.006509 -0.003790
v -0.056264 0.003834 -0.007488
v -0.051233 0.004880 -0.002780
v -0.060986 0.008754 -0.002187
v -0.065916 0.009890 -0.004211
v -0.043758 -0.005896 0.005283
v -0.045829 -0.006875 0.002824
v -0.036815 -0.007691 0.006486
v -0.044126 -0.003609 0.002067
v -0.041763 -0.001606 -0.000294
v -0.039889 -0.003054 0.003895
v -0.038267 0.000962 0.003900
v -0.036056 -0.003111 0.006404
v -0.039322 -0.000440 0.007677
v -0.036126 -0.002175 0.010525
v -0.045391 -0.008843 -0.009172
v -0.038282 -0.008313 -0.009258
v -0.036790 -0.011108 -0.004611
v -0.033400 -0.003023 -0.012411
v -0.040669 -0.010693 0.000499
v -0.030455 -0.010757 0.003915
v -0.042945 0.005217 -0.012315
v -0.035047 0.007777 -0.010351
v -0.035862 0.002488 -0.012889
v -0.042279 0.001584 -0.001047
v -0.045230 0.004261 -0.001176
v -0.041323 0.004598 0.002353
v -0.045542 0.004939 0.001615
v -0.037220 0.002400 0.010863
v -0.044065 0.001465 0.008263
v -0.028477 -0.011356 -0.003595
v -0.028927 -0.008867 -0.008649
v -0.024442 -0.010957 -0.006276
v -0.024873 -0.003974 -0.011991
v -0.029610 0.000109 -0.013112
v -0.021198 -0.000153 -0.013237
v -0.014399 -0.002195 -0.012857
v -0.019219 -0.008627 -0.009298
v -0.019325 -0.011639 -0.004127
v -0.014868 -0.010974 -0.006918
v -0.022683 -0.009551 0.006096
v -0.024557 -0.011603 0.001816
v -0.016341 -0.011732 0.001058
v -0.010393 -0.011172 0.004279
v -0.009314 -0.007478 0.008747
v -0.028711 -0.002728 0.011052
v -0.021162 -0.003882 0.010587
v -0.008309 -0.003131 0.010873
v -0.013080 0.000678 0.011558
v -0.009567 -0.008823 -0.009202
v -0.006475 -0.011383 -0.005755
v -0.000729 -0.007164 -0.011109
v 0.008919 -0.010757 -0.007301
v 0.000801 -0.012034 -0.006163
v -0.005735 -0.001735 -0.012672
v 0.002211 -0.003247 -0.012750
v -0.003789 -0.012063 0.003057
v 0.002140 -0.013114 -0.000721
v 0.002663 -0.011848 0.004584
v 0.000291 -0.006450 0.009281
v 0.006832 -0.005379 0.010454
v 0.005100 0.000152 0.011161
v -0.028205 0.004931 -0.012168
v -0.025399 0.008553 -0.009499
v -0.018930 0.005575 -0.011719
v -0.027380 0.011167 -0.004823
v -0.019050 0.009952 -0.007335
v -0.020356 0.011318 0.000904
v -0.015650 0.011784 -0.001225
v -0.031342 0.011462 0.000514
v -0.033312 0.010148 0.004410
v -0.024696 0.008464 0.006603
v -0.021831 0.002923 0.010959
v -0.010536 0.008709 0.006035
v -0.011643 0.009487 -0.008070
v -0.010522 0.004506 -0.012045
v -0.002626 0.008300 -0.009114
v -0.002997 0.011498 -0.001587
v -0.010610 0.011648 -0.000465
v 0.005692 0.005187 -0.011665
v 0.007414 0.000357 -0.013003
v -0.001911 0.003485 -0.012432
v 0.004774 0.010950 -0.003116
v -0.004184 0.002428 0.011278
v 0.006501 0.007022 0.008456
v 0.003428 0.011282 0.000932
v 0.015271 -0.013139 -0.002545
v 0.011410 -0.006764 -0.011303
v 0.016308 -0.002303 -0.012899
v 0.016616 -0.005907 -0.011888
v 0.019247 -0.011016 -0.007407
v 0.028076 -0.013892 -0.002920
v 0.028369 -0.014604 0.001095
v 0.024140 -0.007449 -0.010931
v 0.030690 -0.011583 -0.007380
v 0.039712 -0.008744 -0.010905
v 0.041948 -0.013772 -0.005248
v 0.025351 0.000534 -0.012297
v 0.031713 -0.006229 -0.011444
v 0.035664 -0.000971 -0.012437
v 0.008239 0.008767 -0.007860
v 0.015311 0.003232 -0.011888
v 0.017732 0.008329 -0.007795
v 0.021460 0.005398 -0.010597
v 0.012540 0.011291 -0.000659
v 0.021475 0.011286 -0.000681
v 0.030235 0.005630 -0.010041
v 0.026381 0.008785 -0.006984
v 0.013447 -0.012970 0.002957
v 0.004884 -0.010135 0.007533
v 0.017229 -0.010608 0.009099
v 0.011933 -0.003323 0.011032
v 0.017884 -0.005311 0.012078
v 0.024629 -0.013633 0.004433
v 0.020966 -0.009131 0.009178
v 0.022658 -0.003695 0.013290
v 0.029539 -0.008659 0.011210
v 0.028613 -0.006862 0.015184
v 0.025323 -0.006523 0.013190
v 0.028631 -0.007740 0.017397
v 0.025841 -0.003863 0.017480
v 0.031063 -0.003815 0.019863
v 0.033680 -0.007667 0.013178
v 0.036268 -0.005431 0.015951
v 0.034734 -0.004686 0.021289
v 0.039541 -0.004010 0.018674
v 0.036484 -0.001151 0.022350
v 0.035341 -0.014241 0.001923
v 0.029551 -0.011838 0.007181
v 0.039163 -0.007936 0.010965
v 0.033833 -0.010535 0.010654
v 0.017279 0.001200 0.012132
v 0.018473 0.005531 0.010562
v 0.023159 0.007515 0.010585
v 0.022302 -0.000900 0.015113
v 0.022509 0.003029 0.013635
v 0.027475 0.002371 0.017767
v 0.031757 0.007493 0.012915
v 0.032178 0.004692 0.017434
v 0.037671 0.003405 0.013345
v 0.035784 0.005722 0.018302
v 0.039726 0.002375 0.015314
v 0.033724 0.003833 0.021649
v 0.038162 0.002870 0.018707
v 0.042503 -0.000802 -0.013225
v 0.046356 -0.014445 -0.005337
v 0.046823 -0.007868 -0.012525
v 0.054001 -0.002612 -0.014771
v 0.042919 -0.014763 -0.000135
v 0.047329 -0.014115 0.003191
v 0.050213 -0.014078 0.000194
v 0.036423 0.006334 -0.009484
v 0.040240 0.007514 -0.008901
v 0.046671 0.004322 -0.012104
v 0.040396 -0.013454 0.005055
v 0.043693 -0.011784 0.007168
v 0.048053 -0.008773 0.008608
v 0.051796 -0.008161 0.009554
v 0.051687 -0.012071 0.005465
v 0.038334 -0.002192 0.013914
v 0.041694 -0.003964 0.012759
v 0.044558 -0.007375 0.010642
v 0.046813 -0.001813 0.012006
v 0.052813 -0.003311 0.010854
v 0.045763 0.004380 0.011131
v 0.042203 0.002340 0.012379
v 0.059244 -0.006587 -0.014109
v 0.057888 -0.012002 -0.010580
v 0.052152 -0.008693 -0.012446
v 0.050933 -0.013510 -0.005489
v 0.060749 -0.011643 -0.006271
v 0.059280 -0.014163 -0.006057
v 0.060479 -0.009032 -0.010615
v 0.061093 -0.004282 -0.008159
v 0.061257 -0.006972 -0.004588
v 0.059841 0.000207 -0.014659
v 0.062095 -0.001692 -0.012643
v 0.061476 0.000853 -0.009858
v 0.056466 -0.013173 -0.002755
v 0.057499 -0.010502 -0.000870
v 0.057314 -0.007303 0.000218
v 0.059141 -0.001996 -0.002860
v 0.058525 -0.003682 0.000780
v 0.056748 -0.010813 0.003715
v 0.056981 -0.005607 0.008125
v 0.059720 -0.002385 0.005615
v 0.058594 0.001580 0.008219
v 0.058813 0.003801 -0.003767
v 0.057943 0.003229 0.001187
v 0.058786 0.006086 0.004643
v 0.057450 0.006248 0.007546
v -0.057879 -0.000791 -0.010227
v -0.052203 -0.005120 0.000537
v -0.047800 0.007708 -0.000468
v -0.044453 0.006320 0.005882
v 0.049187 0.007175 -0.010430
v 0.061616 0.000646 -0.005204
v 0.058587 0.003739 -0.010057
v -0.056325 -0.004679 -0.001724
v -0.048767 -0.002506 -0.001514
v -0.058816 -0.001228 -0.002298
v -0.056032 0.001721 -0.003059
v -0.056514 -0.001312 -0.005252
v -0.051933 0.012388 -0.000673
v -0.047139 0.012011 0.001398
v -0.048632 0.009405 0.005169
v -0.040666 0.011918 -0.002489
v -0.041767 0.009171 0.005612
v 0.027869 0.011200 -0.001071
v 0.034237 0.010220 -0.003021
v 0.036794 0.010823 0.002405
v 0.025791 0.010473 0.006864
v 0.033355 0.008884 0.008772
v 0.043793 0.010619 -0.004609
v 0.050983 0.010379 -0.006666
v 0.047379 0.010686 0.003775
v 0.050155 0.011575 -0.001051
v 0.044593 0.008332 0.008023
v 0.054199 0.010177 0.002548
v 0.059342 0.007148 -0.001659
v 0.054812 0.008474 0.000384
v 0.055934 0.005971 -0.011582
v 0.056911 0.010245 -0.003905
v 0.060991 0.006390 -0.006901
v -0.051224 0.001374 -0.002147
vt 0.350874 0.796257
vt 0.392991 0.793181
vt 0.419775 0.849824
vt 0.223562 0.076756
vt 0.181982 0.074127
vt 0.195746 0.049186
vt 0.346342 0.882373
vt 0.306434 0.765470
vt 0.287162 0.828807
vt 0.318390 0.908549
vt 0.142323 0.042036
vt 0.118206 0.066047
vt 0.124300 0.023402
vt 0.547738 0.346617
vt 0.568602 0.311474
vt 0.597591 0.337873
vt 0.569216 0.386297
vt 0.221534 0.153964
vt 0.202385 0.103640
vt 0.411646 0.906512
vt 0.452457 0.806531
vt 0.485582 0.883934
vt 0.492557 0.764221
vt 0.038762 0.127471
vt 0.000109 0.129888
vt 0.012069 0.092815
vt 0.037361 0.169815
vt 0.393327 0.754580
vt 0.363224 0.698943
vt 0.410821 0.731204
vt 0.086636 0.055693
vt 0.072592 0.034762
vt 0.861083 0.855574
vt 0.909117 0.880152
vt 0.865294 0.958243
vt 0.915366 0.965683
vt 0.071446 0.098634
vt 0.111773 0.092043
vt 0.090822 0.151075
vt 0.038148 0.081039
vt 0.022585 0.032678
vt 0.007476 0.069574
vt 0.911287 0.877147
vt 0.974442 0.893696
vt 0.940250 0.924436
vt 0.519877 0.782611
vt 0.498221 0.793187
vt 0.519317 0.724620
vt 0.518509 0.814359
vt 0.120962 0.237126
vt 0.127938 0.273010
vt 0.089365 0.272215
vt 0.173629 0.265431
vt 0.148731 0.241915
vt 0.110822 0.311101
vt 0.147966 0.323640
vt 0.046769 0.709784
vt 0.064359 0.743382
vt 0.029315 0.742203
vt 0.081015 0.708096
vt 0.601406 0.389423
vt 0.603876 0.445628
vt 0.564655 0.451592
vt 0.301699 0.672508
vt 0.358391 0.691317
vt 0.466910 0.753867
vt 0.425527 0.726932
vt 0.493532 0.673554
vt 0.260929 0.759039
vt 0.901046 0.806056
vt 0.876122 0.746951
vt 0.920310 0.752634
vt 0.102148 0.227948
vt 0.088668 0.200915
vt 0.073402 0.237129
vt 0.066509 0.208145
vt 0.713977 0.230902
vt 0.682425 0.221242
vt 0.685978 0.167670
vt 0.558275 0.515644
vt 0.600471 0.513506
vt 0.577181 0.546593
vt 0.344252 0.625126
vt 0.292591 0.609257
vt 0.271375 0.653388
vt 0.255694 0.586697
vt 0.255250 0.537441
vt 0.319726 0.555727
vt 0.561220 0.585536
vt 0.607882 0.586175
vt 0.582219 0.617034
vt 0.431955 0.662944
vt 0.507874 0.616215
vt 0.475061 0.633208
vt 0.469232 0.569226
vt 0.495618 0.522683
vt 0.178844 0.517874
vt 0.182735 0.423067
vt 0.228258 0.422980
vt 0.573309 0.722556
vt 0.571947 0.666187
vt 0.731727 0.338426
vt 0.725496 0.443892
vt 0.694238 0.407295
vt 0.236334 0.525553
vt 0.607869 0.657474
vt 0.579421 0.685594
vt 0.627587 0.725273
vt 0.587243 0.798436
vt 0.573442 0.735942
vt 0.790190 0.438450
vt 0.750971 0.480881
vt 0.784128 0.372660
vt 0.265895 0.425453
vt 0.301624 0.486194
vt 0.783986 0.500504
vt 0.411646 0.490456
vt 0.483606 0.473988
vt 0.455922 0.430418
vt 0.497260 0.425610
vt 0.198481 0.326817
vt 0.249504 0.353459
vt 0.177565 0.372885
vt 0.751742 0.510413
vt 0.739798 0.554745
vt 0.696087 0.543133
vt 0.808344 0.208706
vt 0.832437 0.264639
vt 0.793349 0.255816
vt 0.897718 0.696117
vt 0.793583 0.324292
vt 0.863085 0.674771
vt 0.890129 0.625754
vt 0.841517 0.334870
vt 0.992453 0.610718
vt 0.999805 0.683692
vt 0.951733 0.625510
vt 0.975373 0.561219
vt 0.842542 0.626592
vt 0.911054 0.567129
vt 0.926298 0.532742
vt 0.407146 0.508101
vt 0.372768 0.522008
vt 0.355719 0.448872
vt 0.677919 0.336685
vt 0.722296 0.286130
vt 0.620934 0.423838
vt 0.624416 0.322243
vt 0.849255 0.571574
vt 0.895770 0.563128
vt 0.857980 0.504938
vt 0.986955 0.507048
vt 0.934972 0.436316
vt 0.923618 0.496498
vt 0.852290 0.522250
vt 0.815652 0.536146
vt 0.835214 0.463267
vt 0.900592 0.497787
vt 0.886155 0.438019
vt 0.999508 0.441064
vt 0.950572 0.378918
vt 0.680765 0.476106
vt 0.640036 0.548584
vt 0.418965 0.241301
vt 0.432268 0.291008
vt 0.364677 0.347885
vt 0.351081 0.222189
vt 0.549263 0.847196
vt 0.414307 0.439735
vt 0.440948 0.329917
vt 0.631064 0.819420
vt 0.760816 0.573859
vt 0.801723 0.601532
vt 0.642833 0.854586
vt 0.587816 0.880190
vt 0.088705 0.741901
vt 0.072461 0.641070
vt 0.097813 0.637740
vt 0.547738 0.949199
vt 0.631470 0.914248
vt 0.589386 0.960756
vt 0.057095 0.370947
vt 0.107876 0.337320
vt 0.110146 0.433295
vt 0.826861 0.672493
vt 0.778227 0.729296
vt 0.766818 0.668460
vt 0.822144 0.752868
vt 0.057586 0.432300
vt 0.081731 0.489237
vt 0.845202 0.421863
vt 0.896723 0.363730
vt 0.846111 0.348509
vt 0.874904 0.321856
vt 0.921707 0.386878
vt 0.936013 0.320736
vt 0.937485 0.254085
vt 0.998597 0.284220
vt 0.867940 0.252836
vt 0.912737 0.287851
vt 0.836962 0.282213
vt 0.196707 0.238667
vt 0.226226 0.318093
vt 0.253109 0.220394
vt 0.273107 0.313629
vt 0.726725 0.598740
vt 0.742558 0.646272
vt 0.297726 0.226916
vt 0.223922 0.154909
vt 0.265919 0.200073
vt 0.321782 0.196591
vt 0.564272 0.176579
vt 0.599024 0.166100
vt 0.600670 0.194193
vt 0.613882 0.154952
vt 0.308878 0.171709
vt 0.328833 0.131418
vt 0.347009 0.164854
vt 0.776201 0.729475
vt 0.747272 0.758865
vt 0.739522 0.716242
vt 0.562460 0.136326
vt 0.624888 0.119610
vt 0.577391 0.106018
vt 0.613431 0.095989
vt 0.584084 0.070359
vt 0.629785 0.072673
vt 0.097813 0.585080
vt 0.528295 0.194372
vt 0.527699 0.234891
vt 0.491116 0.231346
vt 0.527460 0.106325
vt 0.539410 0.150631
vt 0.688788 0.646886
vt 0.649774 0.651920
vt 0.432268 0.174622
vt 0.631592 0.687642
vt 0.709903 0.688395
vt 0.677564 0.689063
vt 0.693671 0.737005
vt 0.629984 0.758482
vt 0.670700 0.768747
vt 0.260659 0.776590
vt 0.232132 0.823596
vt 0.220218 0.770193
vt 0.275359 0.803707
vt 0.243941 0.842036
vt 0.695528 0.788449
vt 0.729490 0.809797
vt 0.685531 0.825553
vt 0.828561 0.802443
vt 0.762461 0.788677
vt 0.098368 0.307859
vt 0.023431 0.327182
vt 0.825479 0.895062
vt 0.781404 0.840619
vt 0.393234 0.165403
vt 0.372160 0.141044
vt 0.421360 0.139965
vt 0.425501 0.098332
vt 0.396232 0.091839
vt 0.920310 0.207750
vt 0.856619 0.207035
vt 0.919501 0.157802
vt 0.846455 0.181285
vt 0.876423 0.129603
vt 0.467562 0.133540
vt 0.471400 0.101008
vt 0.470277 0.179892
vt 0.470923 0.055635
vt 0.460633 0.025722
vt 0.425402 0.057284
vt 0.844319 0.068289
vt 0.864208 0.025539
vt 0.874083 0.060007
vt 0.202959 0.952631
vt 0.169524 0.941767
vt 0.183111 0.913538
vt 0.822757 0.045560
vt 0.502575 0.070369
vt 0.530588 0.027021
vt 0.542510 0.072085
vt 0.909606 0.087236
vt 0.961014 0.044191
vt 0.959209 0.081015
vt 0.886109 0.131705
vt 0.869229 0.110155
vt 0.798257 0.935728
vt 0.749514 0.928020
vt 0.775241 0.878999
vt 0.019242 0.288589
vt 0.027561 0.233932
vt 0.087024 0.274669
vt 0.076743 0.789106
vt 0.028573 0.797337
vt 0.040648 0.778497
vt 0.067261 0.822524
vt 0.778769 0.030978
vt 0.811425 0.078610
vt 0.781413 0.069280
vt 0.852290 0.935398
vt 0.712782 0.873532
vt 0.675937 0.886026
vt 0.694320 0.833772
vt 0.716090 0.900384
vt 0.357086 0.107971
vt 0.350155 0.059408
vt 0.734568 0.025495
vt 0.729479 0.051789
vt 0.731976 0.075874
vt 0.314555 0.144683
vt 0.297122 0.104368
vt 0.345856 0.106383
vt 0.323279 0.087025
vt 0.393003 0.023220
vt 0.693829 0.063402
vt 0.637922 0.089660
vt 0.651585 0.046570
vt 0.677232 0.112853
vt 0.330817 0.044402
vt 0.706543 0.135036
vt 0.689654 0.167082
vt 0.639679 0.126509
vt 0.254147 0.095360
vt 0.270071 0.057956
vt 0.313498 0.014618
vt 0.270605 0.020499
vt 0.280140 0.000414
vt 0.988683 0.165033
vt 0.999710 0.131167
vt 0.386105 0.873123
vt 0.153287 0.069310
vt 0.158684 0.034881
vt 0.586602 0.275954
vt 0.421563 0.792413
vt 0.421683 0.867860
vt 0.050650 0.859504
vt 0.071716 0.819811
vt 0.071716 0.894332
vt 0.177934 0.240393
vt 0.183719 0.270346
vt 0.180782 0.178790
vt 0.068251 0.181791
vt 0.977772 0.791052
vt 0.411224 0.786260
vt 0.067738 0.778026
vt 0.376141 0.744518
vt 0.267251 0.702592
vt 0.036318 0.231357
vt 0.029315 0.669228
vt 0.063395 0.642235
vt 0.428892 0.592164
vt 0.789297 0.334664
vt 0.264271 0.423418
vt 0.837429 0.397654
vt 0.910926 0.652574
vt 0.408262 0.422247
vt 0.992427 0.357318
vt 0.424476 0.388068
vt 0.421451 0.351644
vt 0.482344 0.339234
vt 0.465646 0.227891
vt 0.494746 0.251937
vt 0.774255 0.608322
vt 0.029569 0.635615
vt 0.955540 0.023692
vt 0.909819 0.083999
vt 0.859906 0.015299
vt 0.841710 0.596392
vt 0.995301 0.217332
vt 0.344512 0.204623
vt 0.586063 0.240571
vt 0.668985 0.799559
vt 0.791017 0.145515
vt 0.763381 0.198438
vt 0.766414 0.123800
vt 0.418888 0.910542
vt 0.490104 0.957666
vt 0.397559 0.957366
vt 0.218640 0.893366
vt 0.834902 0.107967
vt 0.202864 0.877861
vt 0.272271 0.833714
vt 0.277684 0.892475
vt 0.736306 0.855536
vt 0.372748 0.945521
vt 0.348278 0.884757
vt 0.394951 0.876947
vt 0.660804 0.845336
vt 0.645999 0.817668
vt 0.028573 0.750347
vt 0.043818 0.864497
vt 0.738153 0.865159
vt 0.655638 0.929736
vt 0.689968 0.929572
vt 0.282549 0.147029
vt 0.271971 0.125531
vt 0.255616 0.920034
vt 0.224318 0.928803
vt 0.221039 0.885682
vt 0.183332 0.137414
vt 0.145820 0.195090
vt 0.156346 0.130784
vt 0.136033 0.128695
vt 0.155957 0.109368
vt 0.910926 0.810760
vt 0.406400 0.665438
vt 0.393258 0.628717
vt 0.354255 0.635350
vt 0.928126 0.724135
vt 0.423313 0.580030
vt 0.356287 0.587775
vt 0.642769 0.169281
vt 0.620934 0.185658
vt 0.620982 0.138446
vt 0.946269 0.206796
vt 0.718512 0.249718
vt 0.775062 0.223525
vt 0.791017 0.267907
vt 0.021654 0.441491
vt 0.019348 0.390272
vt 0.062319 0.451999
vt 0.210403 0.701542
vt 0.176820 0.719682
vt 0.214749 0.566725
vt 0.130402 0.609374
vt 0.123785 0.676223
vt 0.185858 0.773665
vt 0.130359 0.795660
vt 0.111484 0.723058
vt 0.721109 0.175435
vt 0.021950 0.516427
vt 0.726688 0.119617
vt 0.096592 0.528768
vt 0.062315 0.557869
vt 0.019348 0.573722
vt 0.165794 0.861709
vt 0.129256 0.878021
vt 0.111484 0.926208
vt 0.231798 0.074260
vt 0.225082 0.010382
vt 0.224857 0.031242
vt 0.152802 0.965873
vt 0.770477 0.072694
vt 0.490104 0.884861
vt 0.278231 0.902896
vt 0.239233 0.840017
vt 0.316650 0.961387
vt 0.341649 0.914426
vt 0.266852 0.956249
vt 0.118222 0.163244
vt 0.018128 0.198674
vt 0.959889 0.157811
vt 0.764611 0.301428
vt 0.224407 0.856525
vt 0.202003 0.871550
vt 0.097001 0.581912
vt 0.973803 0.040581
vt 0.999745 0.076287
vt 0.963144 0.081525
vt 0.001422 0.188063
vt 0.017635 0.203148
vt 0.001422 0.242228
vt 0.224857 0.116545
vt 0.738153 0.947628
vt 0.053583 0.613740
vt 0.994978 0.119901
vn -0.0052 -0.4291 -0.9032
vn -0.0358 -0.7307 -0.6817
vn -0.6992 -0.6786 -0.2250
vn -0.8107 0.3255 0.4866
vn -0.9469 -0.2610 -0.1880
vn -0.5349 -0.4496 -0.7153
vn 0.0103 -0.1309 -0.9913
vn -0.0329 0.3720 -0.9277
vn -0.9384 0.2625 -0.2248
vn -0.7382 -0.4725 0.4815
vn -0.5119 -0.2880 0.8093
vn -0.0287 -0.5042 0.8631
vn -0.3498 -0.8619 0.3671
vn -0.0199 -0.9809 -0.1934
vn -0.5838 -0.2599 0.7692
vn -0.9540 0.1800 0.2398
vn -0.1144 -0.9545 0.2756
vn -0.2336 -0.7561 0.6114
vn -0.1602 -0.9036 0.3974
vn -0.2586 0.0508 0.9646
vn -0.5425 -0.3816 0.7483
vn -0.2926 -0.9137 0.2821
vn -0.7932 0.1522 0.5897
vn -0.2018 0.9791 0.0237
vn -0.5141 -0.7176 0.4699
vn -0.6501 0.3096 -0.6939
vn -0.0023 0.8099 -0.5866
vn -0.3558 -0.8162 0.4552
vn -0.8357 -0.2588 0.4843
vn -0.2994 -0.1416 0.9436
vn -0.3411 -0.8879 0.3087
vn -0.9976 -0.0198 -0.0664
vn -0.5020 0.1043 0.8586
vn -0.3724 0.1178 0.9206
vn -0.3132 -0.5075 0.8027
vn -0.3476 0.7278 0.5911
vn -0.5031 0.4651 0.7284
vn -0.4759 0.4696 0.7436
vn -0.9115 -0.3825 0.1512
vn -0.9159 -0.1726 0.3624
vn -0.4894 -0.8414 -0.2294
vn -0.3948 -0.4607 0.7949
vn 0.0254 -0.6984 -0.7152
vn 0.0081 -0.6789 -0.7341
vn -0.0016 -0.9731 -0.2302
vn -0.0197 -0.3402 -0.9402
vn -0.1035 -0.9542 0.2807
vn -0.0825 -0.9104 0.4054
vn -0.0055 0.4121 -0.9111
vn -0.0003 0.6972 -0.7169
vn 0.0083 0.1711 -0.9852
vn -0.5122 -0.1500 0.8457
vn -0.4378 -0.5558 0.7067
vn -0.5993 -0.7616 0.2465
vn -0.4067 -0.8953 0.1818
vn -0.1838 0.2370 0.9540
vn -0.8903 -0.3637 0.2742
vn -0.0640 -0.9829 -0.1727
vn -0.0344 -0.7337 -0.6786
vn -0.0423 -0.8988 -0.4363
vn -0.0211 -0.4201 -0.9072
vn -0.0044 -0.0355 -0.9994
vn 0.0187 -0.0138 -0.9997
vn 0.0051 -0.1875 -0.9822
vn -0.0223 -0.6716 -0.7406
vn -0.0206 -0.9747 -0.2226
vn -0.0381 -0.8708 -0.4901
vn -0.0328 -0.7802 0.6247
vn -0.0234 -0.9790 0.2027
vn -0.0092 -0.9901 0.1402
vn -0.0145 -0.9255 0.3786
vn 0.0010 -0.6244 0.7811
vn -0.0453 -0.3312 0.9425
vn -0.0311 -0.3669 0.9298
vn 0.0379 -0.2748 0.9608
vn -0.0115 0.0105 0.9999
vn -0.0244 -0.6634 -0.7479
vn -0.0720 -0.9496 -0.3050
vn -0.0234 -0.5433 -0.8392
vn 0.0194 -0.7907 -0.6120
vn -0.0352 -0.8896 -0.4554
vn -0.0009 -0.0853 -0.9964
vn -0.0152 -0.1950 -0.9807
vn -0.0928 -0.9393 0.3302
vn -0.0693 -0.9975 0.0124
vn -0.1070 -0.8743 0.4735
vn -0.0648 -0.4752 0.8775
vn -0.1096 -0.3038 0.9464
vn -0.0434 0.0644 0.9970
vn 0.0068 0.3984 -0.9172
vn 0.0049 0.7483 -0.6633
vn 0.0360 0.4675 -0.8832
vn -0.0030 0.9591 -0.2830
vn 0.0265 0.8606 -0.5086
vn -0.0094 0.9651 0.2616
vn 0.0297 0.9994 0.0190
vn 0.0214 0.9822 0.1865
vn -0.0053 0.8928 0.4505
vn 0.0014 0.7691 0.6391
vn -0.0098 0.3271 0.9450
vn 0.0043 0.8040 0.5946
vn 0.0239 0.8315 -0.5550
vn 0.0062 0.3761 -0.9266
vn 0.0184 0.7726 -0.6347
vn -0.0035 0.9986 -0.0533
vn 0.0210 0.9943 0.1046
vn 0.0494 0.5149 -0.8558
vn 0.0230 0.0538 -0.9983
vn -0.0134 0.3090 -0.9510
vn 0.0213 0.9643 -0.2641
vn 0.0180 0.2512 0.9678
vn -0.0337 0.6843 0.7285
vn 0.0251 0.9721 0.2331
vn -0.0376 -0.9764 -0.2125
vn -0.0122 -0.5070 -0.8619
vn 0.0100 -0.0722 -0.9973
vn 0.0033 -0.4496 -0.8932
vn -0.0124 -0.7979 -0.6026
vn 0.0193 -0.9338 -0.3573
vn 0.0002 -0.9965 0.0841
vn -0.0016 -0.5669 -0.8238
vn -0.0695 -0.8076 -0.5857
vn -0.0815 -0.5338 -0.8417
vn -0.1141 -0.9000 -0.4206
vn 0.0493 0.1634 -0.9853
vn -0.0211 -0.3663 -0.9302
vn -0.0431 0.0785 -0.9960
vn 0.0607 0.8250 -0.5619
vn 0.0360 0.4117 -0.9106
vn 0.0041 0.8081 -0.5890
vn 0.0235 0.5559 -0.8309
vn -0.0094 0.9999 -0.0120
vn -0.0002 0.9904 -0.1379
vn 0.0492 0.5930 -0.8037
vn 0.0435 0.8348 -0.5488
vn -0.0568 -0.9728 0.2246
vn -0.1375 -0.7072 0.6935
vn -0.0111 -0.7071 0.7070
vn -0.1142 -0.0424 0.9926
vn -0.1361 -0.3582 0.9237
vn -0.0413 -0.9191 0.3918
vn 0.0320 -0.6405 0.7673
vn -0.3675 -0.5653 0.7385
vn -0.1060 -0.8316 0.5451
vn -0.1089 -0.9888 -0.1024
vn -0.4129 -0.7323 0.5416
vn -0.1757 -0.8683 0.4638
vn -0.5942 -0.2652 0.7593
vn -0.2777 -0.4339 0.8571
vn -0.0685 -0.7899 0.6094
vn 0.4090 -0.8436 0.3479
vn -0.0766 -0.7143 0.6956
vn 0.8245 -0.5139 0.2369
vn 0.3129 -0.0212 0.9495
vn -0.0162 -0.9895 0.1435
vn -0.0775 -0.8442 0.5303
vn 0.2376 -0.6562 0.7162
vn 0.0061 -0.8046 0.5938
vn -0.2806 0.1956 0.9397
vn -0.1944 0.3831 0.9030
vn -0.1928 0.7193 0.6674
vn -0.5298 -0.0316 0.8475
vn -0.4402 0.4444 0.7802
vn -0.4629 0.4224 0.7793
vn 0.1510 0.8457 0.5118
vn -0.1985 0.9301 0.3090
vn 0.5076 0.7602 0.4054
vn 0.2262 0.9625 0.1500
vn 0.9193 0.3383 -0.2008
vn -0.1086 0.5391 0.8352
vn 0.7575 0.4335 0.4881
vn -0.1446 0.0916 -0.9852
vn 0.0253 -0.9258 -0.3772
vn -0.1107 -0.5009 -0.8584
vn -0.0755 0.0030 -0.9971
vn -0.0157 -0.9981 0.0597
vn 0.0785 -0.9292 0.3611
vn 0.1863 -0.9759 0.1137
vn -0.0619 0.6364 -0.7689
vn -0.1106 0.6989 -0.7066
vn -0.1154 0.4297 -0.8956
vn -0.0280 -0.8745 0.4843
vn 0.1017 -0.7670 0.6335
vn 0.0710 -0.6035 0.7942
vn 0.1911 -0.5445 0.8167
vn 0.2340 -0.8066 0.5428
vn 0.8477 -0.2844 0.4478
vn 0.1826 -0.2582 0.9487
vn 0.2200 -0.4872 0.8451
vn 0.1954 -0.0615 0.9788
vn 0.2952 -0.0904 0.9512
vn 0.1224 0.4386 0.8903
vn 0.2201 0.2753 0.9358
vn 0.4647 -0.3552 -0.8111
vn 0.2153 -0.7820 -0.5848
vn -0.1164 -0.5868 -0.8013
vn 0.0700 -0.9409 -0.3314
vn 0.9081 -0.4105 0.0824
vn 0.3559 -0.9332 0.0505
vn 0.8696 -0.3099 -0.3844
vn 0.9954 -0.0883 0.0378
vn 0.9482 -0.0047 0.3178
vn 0.4266 0.3517 -0.8333
vn 0.9419 0.0087 -0.3357
vn 0.9336 0.2975 -0.1997
vn 0.3704 -0.9054 0.2078
vn 0.8770 -0.3183 0.3599
vn 0.9448 -0.1648 0.2832
vn 0.9169 0.0097 0.3990
vn 0.9854 -0.1585 -0.0623
vn 0.7351 -0.5696 0.3677
vn 0.6773 -0.3888 0.6245
vn 0.9760 -0.1435 0.1636
vn 0.7696 0.1223 0.6267
vn 0.8960 -0.0210 0.4436
vn 0.9841 0.1724 0.0425
vn 0.9072 0.4148 -0.0704
vn 0.5304 0.5453 0.6490
vn -0.7387 0.0474 0.6724
vn -0.2352 0.6346 0.7362
vn -0.4789 -0.8256 0.2984
vn -0.5423 -0.3301 0.7727
vn -0.0615 0.6810 -0.7297
vn 0.9025 0.0089 0.4306
vn 0.6554 0.5023 -0.5641
vn -0.6369 0.3852 0.6678
vn -0.1866 0.4726 0.8613
vn -0.9477 0.0670 0.3122
vn -0.6426 0.5246 0.5585
vn -0.9817 0.1899 -0.0134
vn 0.0212 0.9980 0.0589
vn 0.0188 0.9397 0.3416
vn -0.3023 0.2247 0.9264
vn 0.0334 0.9946 -0.0981
vn -0.0727 0.7126 0.6978
vn 0.0203 0.9878 -0.1546
vn 0.0045 0.9412 -0.3377
vn 0.0285 0.9916 0.1265
vn -0.0341 0.9400 0.3396
vn 0.1634 0.8865 0.4328
vn -0.0778 0.9493 -0.3045
vn 0.0561 0.9077 -0.4158
vn 0.0403 0.9400 0.3388
vn 0.1208 0.9926 -0.0137
vn 0.0794 0.7735 0.6288
vn 0.4749 0.8536 0.2140
vn 0.8260 0.3292 0.4576
vn 0.8840 0.3350 0.3261
vn 0.2579 0.6201 -0.7409
vn 0.4273 0.9039 -0.0186
vn 0.8603 0.4834 -0.1617
vn -0.1192 0.1595 0.9800
s 1
f 1/1/1 2/2/2 3/3/3
f 3/4/3 4/5/4 5/6/5
f 6/7/6 7/8/7 1/1/1
f 8/9/8 7/8/7 6/7/6
f 6/7/6 9/10/9 8/9/8
f 10/11/10 11/12/11 9/13/9
f 12/14/12 13/15/13 2/16/2
f 12/14/12 2/16/2 14/17/14
f 3/4/3 15/18/15 16/19/16
f 3/20/3 17/21/17 15/22/15
f 15/22/15 17/21/17 18/23/18
f 19/24/19 20/25/20 21/26/21
f 20/25/20 19/24/19 22/27/22
f 23/28/23 20/29/20 24/30/24
f 9/13/9 25/31/25 26/32/26
f 27/33/27 8/34/8 26/35/26
f 9/36/9 26/35/26 8/34/8
f 28/37/28 29/38/29 30/39/30
f 25/31/25 28/37/28 31/40/31
f 32/41/32 25/31/25 31/40/31
f 25/31/25 32/41/32 26/32/26
f 31/40/31 21/26/21 23/42/23
f 24/43/24 26/44/26 32/45/32
f 18/23/18 33/46/33 34/47/34
f 18/23/18 35/48/35 33/46/33
f 33/46/33 36/49/36 34/47/34
f 37/50/37 38/51/38 39/52/39
f 33/53/33 38/51/38 36/54/36
f 40/55/40 38/51/38 35/56/35
f 40/55/40 39/52/39 38/51/38
f 41/57/41 40/58/40 42/59/42
f 39/60/39 40/58/40 41/57/41
f 14/17/14 43/61/43 44/62/44
f 44/62/44 45/63/45 14/17/14
f 43/61/43 14/17/14 2/16/2
f 46/64/46 44/65/44 7/8/7
f 47/66/47 45/67/45 48/68/48
f 48/68/48 35/48/35 47/66/47
f 47/66/47 35/48/35 18/23/18
f 7/8/7 8/9/8 49/69/49
f 49/70/49 50/71/50 51/72/51
f 52/73/52 53/74/53 30/39/30
f 54/75/54 53/74/53 52/73/52
f 53/74/53 54/75/54 55/76/55
f 42/77/42 56/78/56 57/79/57
f 39/52/39 52/73/52 37/50/37
f 52/73/52 39/52/39 54/75/54
f 58/80/58 59/81/59 60/82/60
f 46/64/46 59/83/59 44/65/44
f 61/84/61 46/64/46 62/85/62
f 61/84/61 62/85/62 63/86/63
f 46/64/46 61/84/61 59/83/59
f 64/87/64 65/88/65 61/84/61
f 63/86/63 64/87/64 61/84/61
f 66/89/66 65/90/65 67/91/67
f 60/82/60 66/89/66 58/80/58
f 66/89/66 60/82/60 65/90/65
f 48/68/48 45/67/45 58/92/58
f 68/93/68 69/94/69 70/95/70
f 70/95/70 71/96/71 68/93/68
f 68/97/68 71/98/71 72/99/72
f 68/93/68 42/100/42 35/48/35
f 68/93/68 73/101/73 42/100/42
f 74/102/74 75/103/75 76/104/76
f 72/99/72 74/105/74 68/97/68
f 77/106/77 78/107/78 67/91/67
f 79/108/79 80/109/80 81/110/81
f 82/111/82 79/112/79 64/113/64
f 79/114/79 77/115/77 64/87/64
f 83/116/83 79/112/79 82/111/82
f 78/117/78 84/118/84 71/96/71
f 78/117/78 71/96/71 70/95/70
f 85/119/85 86/120/86 84/118/84
f 86/121/86 87/122/87 84/123/84
f 87/124/87 88/125/88 89/126/89
f 51/127/51 90/128/90 62/129/62
f 50/71/50 90/130/90 51/72/51
f 62/129/62 90/128/90 63/131/63
f 91/132/91 92/133/92 90/130/90
f 90/128/90 92/134/92 63/131/63
f 91/135/91 50/136/50 93/137/93
f 93/137/93 94/138/94 91/135/91
f 91/132/91 94/139/94 92/133/92
f 95/140/95 96/141/96 93/137/93
f 96/141/96 94/138/94 93/137/93
f 97/142/97 98/143/98 99/144/99
f 100/145/100 56/78/56 73/146/73
f 101/147/101 99/148/99 100/145/100
f 92/133/92 102/149/102 103/150/103
f 104/151/104 103/150/103 102/149/102
f 94/138/94 96/141/96 102/152/102
f 105/153/105 102/152/102 106/154/106
f 96/141/96 106/154/106 102/152/102
f 107/155/107 108/156/108 109/157/109
f 109/158/109 104/151/104 107/159/107
f 104/160/104 105/153/105 110/161/110
f 76/104/76 111/162/111 100/145/100
f 111/162/111 101/147/101 100/145/100
f 89/126/89 112/163/112 111/162/111
f 112/163/112 101/147/101 111/162/111
f 113/164/113 105/165/105 101/166/101
f 112/167/112 113/164/113 101/166/101
f 80/109/80 114/168/114 81/110/81
f 81/169/81 114/170/114 85/119/85
f 115/171/115 80/109/80 79/108/79
f 115/172/115 79/112/79 83/116/83
f 116/173/116 115/172/115 108/156/108
f 108/156/108 115/172/115 83/116/83
f 117/174/117 118/175/118 115/171/115
f 114/176/114 119/177/119 120/178/120
f 119/179/119 121/180/121 122/181/122
f 119/179/119 118/175/118 121/180/121
f 118/175/118 119/179/119 114/168/114
f 123/182/123 124/183/124 122/184/122
f 121/180/121 118/175/118 117/174/117
f 125/185/125 126/186/126 116/173/116
f 116/173/116 126/186/126 121/187/121
f 127/188/127 126/186/126 125/185/125
f 126/189/126 122/184/122 121/190/121
f 128/191/128 129/192/129 107/159/107
f 130/193/130 131/194/131 129/192/129
f 113/195/113 132/196/132 110/161/110
f 133/197/133 130/198/130 132/196/132
f 131/194/131 134/199/134 125/200/125
f 134/199/134 131/194/131 135/201/135
f 131/194/131 130/193/130 135/201/135
f 136/202/136 137/203/137 86/121/86
f 136/202/136 138/204/138 137/203/137
f 138/204/138 88/205/88 137/203/137
f 89/126/89 88/125/88 139/206/139
f 140/207/140 139/206/139 88/125/88
f 140/208/140 88/205/88 138/204/138
f 141/209/141 138/204/138 136/202/136
f 138/204/138 141/209/141 142/210/142
f 142/210/142 143/211/143 140/208/140
f 144/212/144 145/213/145 146/214/146
f 145/213/145 147/215/147 146/214/146
f 146/216/146 147/217/147 148/218/148
f 147/219/147 149/220/149 148/221/148
f 147/215/147 145/213/145 150/222/150
f 149/223/149 147/215/147 150/222/150
f 149/223/149 150/222/150 151/224/151
f 151/224/151 152/225/152 149/223/149
f 152/225/152 153/226/153 154/227/154
f 119/177/119 155/228/155 120/178/120
f 156/229/156 141/230/141 120/231/120
f 156/229/156 150/222/150 144/212/144
f 157/232/157 151/224/151 158/233/158
f 151/224/151 150/222/150 158/233/158
f 139/206/139 159/234/159 89/126/89
f 89/126/89 159/234/159 112/163/112
f 160/235/160 112/163/112 159/234/159
f 112/167/112 132/236/132 113/164/113
f 112/163/112 160/235/160 161/237/161
f 159/234/159 162/238/162 163/239/163
f 160/235/160 159/234/159 163/239/163
f 163/239/163 161/237/161 160/235/160
f 161/237/161 164/240/164 165/241/165
f 165/241/165 164/240/164 166/242/166
f 166/243/166 167/244/167 165/245/165
f 168/246/168 169/247/169 167/244/167
f 167/244/167 166/243/166 168/246/168
f 149/220/149 170/248/170 164/240/164
f 154/249/154 170/248/170 149/220/149
f 170/248/170 166/242/166 164/240/164
f 154/249/154 171/250/171 170/248/170
f 172/251/172 123/252/123 127/188/127
f 173/253/173 124/183/124 174/254/174
f 172/251/172 175/255/175 174/256/174
f 124/257/124 173/258/173 176/259/176
f 173/258/173 177/260/177 176/259/176
f 173/258/173 178/261/178 177/260/177
f 127/262/127 179/263/179 172/264/172
f 180/265/180 172/264/172 179/263/179
f 181/266/181 172/264/172 180/265/180
f 157/232/157 182/267/182 183/268/183
f 155/269/155 182/267/182 157/232/157
f 183/268/183 176/259/176 177/260/177
f 184/270/184 177/260/177 185/271/185
f 184/270/184 183/268/183 177/260/177
f 186/272/186 185/271/185 177/260/177
f 186/272/186 177/260/177 178/261/178
f 187/273/187 157/274/157 188/275/188
f 153/276/153 151/277/151 187/278/187
f 151/279/151 157/274/157 187/273/187
f 189/280/189 190/281/190 188/282/188
f 189/280/189 184/270/184 190/281/190
f 190/281/190 184/270/184 185/271/185
f 190/283/190 185/284/185 191/285/191
f 190/283/190 192/286/192 193/287/193
f 193/287/193 188/275/188 190/283/190
f 194/288/194 195/289/195 196/290/196
f 196/291/196 195/292/195 197/293/197
f 195/294/195 198/295/198 199/296/199
f 195/294/195 200/297/200 198/295/198
f 198/298/198 201/299/201 202/300/202
f 194/288/194 175/255/175 203/301/203
f 194/288/194 196/290/196 175/255/175
f 204/302/204 201/303/201 194/304/194
f 204/302/204 205/305/205 201/303/201
f 197/306/197 206/307/206 178/261/178
f 206/308/206 198/298/198 207/309/207
f 202/300/202 208/310/208 207/309/207
f 202/311/202 209/312/209 208/313/208
f 208/313/208 209/312/209 210/314/210
f 178/261/178 211/315/211 186/272/186
f 211/316/211 207/309/207 208/310/208
f 185/317/185 186/318/186 212/319/212
f 210/314/210 213/320/213 208/313/208
f 213/321/213 212/319/212 208/310/208
f 214/322/214 212/319/212 213/321/213
f 191/323/191 212/319/212 214/322/214
f 209/312/209 215/324/215 216/325/216
f 214/326/214 217/327/217 218/328/218
f 218/329/218 192/286/192 214/330/214
f 6/7/6 1/1/1 5/331/5
f 5/331/5 1/1/1 3/3/3
f 4/5/4 219/332/219 6/333/6
f 219/332/219 10/11/10 6/333/6
f 9/13/9 6/333/6 10/11/10
f 29/38/29 11/12/11 219/332/219
f 4/5/4 6/333/6 5/6/5
f 219/332/219 11/12/11 10/11/10
f 3/334/3 2/16/2 13/15/13
f 14/335/14 17/21/17 13/336/13
f 12/337/12 14/338/14 13/339/13
f 3/4/3 16/19/16 4/5/4
f 3/20/3 13/336/13 17/21/17
f 34/340/34 15/18/15 18/341/18
f 220/342/220 15/18/15 34/340/34
f 19/24/19 31/40/31 28/37/28
f 21/26/21 20/25/20 23/42/23
f 30/39/30 221/343/221 28/37/28
f 221/343/221 19/24/19 28/37/28
f 221/343/221 22/27/22 19/24/19
f 9/13/9 11/12/11 25/31/25
f 29/38/29 25/31/25 11/12/11
f 26/44/26 24/43/24 27/344/27
f 29/38/29 28/37/28 25/31/25
f 32/41/32 31/40/31 23/42/23
f 31/40/31 19/24/19 21/26/21
f 24/30/24 32/345/32 23/28/23
f 18/23/18 17/21/17 47/66/47
f 220/342/220 34/340/34 36/54/36
f 38/51/38 37/50/37 36/54/36
f 33/53/33 35/56/35 38/51/38
f 42/59/42 40/58/40 35/346/35
f 73/146/73 56/78/56 42/77/42
f 44/65/44 43/347/43 1/1/1
f 7/8/7 44/65/44 1/1/1
f 1/1/1 43/347/43 2/2/2
f 51/348/51 46/64/46 7/8/7
f 59/81/59 45/63/45 44/62/44
f 45/67/45 47/66/47 14/335/14
f 14/335/14 47/66/47 17/21/17
f 49/70/49 8/34/8 27/33/27
f 7/8/7 49/69/49 51/348/51
f 50/71/50 49/70/49 27/33/27
f 30/39/30 53/74/53 221/343/221
f 55/76/55 221/343/221 53/74/53
f 221/343/221 55/76/55 22/27/22
f 55/76/55 222/349/222 22/27/22
f 55/76/55 54/75/54 222/349/222
f 42/59/42 57/350/57 41/57/41
f 57/350/57 39/60/39 41/57/41
f 39/60/39 57/350/57 222/351/222
f 222/349/222 54/75/54 39/52/39
f 45/63/45 59/81/59 58/80/58
f 46/64/46 51/348/51 62/85/62
f 61/84/61 65/88/65 59/83/59
f 59/81/59 65/90/65 60/82/60
f 64/87/64 77/115/77 65/88/65
f 77/106/77 67/91/67 65/90/65
f 58/92/58 66/352/66 69/94/69
f 58/92/58 69/94/69 48/68/48
f 48/68/48 68/93/68 35/48/35
f 69/94/69 68/93/68 48/68/48
f 69/94/69 66/352/66 70/95/70
f 73/146/73 68/353/68 74/102/74
f 74/102/74 100/145/100 73/146/73
f 100/145/100 74/102/74 76/104/76
f 74/105/74 72/99/72 75/354/75
f 67/91/67 78/107/78 66/89/66
f 77/106/77 81/110/81 78/107/78
f 85/119/85 78/117/78 81/169/81
f 103/355/103 82/111/82 64/113/64
f 79/108/79 81/110/81 77/106/77
f 109/157/109 108/156/108 83/116/83
f 78/117/78 70/95/70 66/352/66
f 75/354/75 72/99/72 87/122/87
f 78/117/78 85/119/85 84/118/84
f 84/123/84 72/99/72 71/98/71
f 84/123/84 87/122/87 72/99/72
f 87/124/87 89/126/89 111/162/111
f 75/103/75 87/124/87 111/162/111
f 87/122/87 86/121/86 137/203/137
f 90/130/90 50/71/50 91/132/91
f 64/113/64 63/131/63 92/134/92
f 95/140/95 93/137/93 97/356/97
f 94/139/94 102/149/102 92/133/92
f 99/144/99 95/357/95 97/142/97
f 99/148/99 56/78/56 100/145/100
f 95/357/95 99/144/99 101/166/101
f 104/151/104 109/158/109 103/150/103
f 92/134/92 103/355/103 64/113/64
f 103/355/103 109/157/109 82/111/82
f 105/153/105 104/160/104 102/152/102
f 128/191/128 107/159/107 104/151/104
f 83/116/83 82/111/82 109/157/109
f 113/195/113 110/161/110 105/153/105
f 110/161/110 128/358/128 104/160/104
f 96/359/96 101/166/101 106/360/106
f 96/359/96 95/357/95 101/166/101
f 106/360/106 101/166/101 105/165/105
f 111/162/111 76/104/76 75/103/75
f 114/170/114 136/361/136 85/119/85
f 118/175/118 80/109/80 115/171/115
f 118/175/118 114/168/114 80/109/80
f 114/170/114 120/362/120 141/363/141
f 114/170/114 141/363/141 136/361/136
f 115/172/115 116/173/116 117/364/117
f 121/187/121 117/364/117 116/173/116
f 122/365/122 155/228/155 119/177/119
f 126/189/126 123/182/123 122/184/122
f 124/366/124 155/367/155 122/368/122
f 130/193/130 129/192/129 128/191/128
f 108/156/108 107/155/107 129/369/129
f 129/369/129 116/173/116 108/156/108
f 116/173/116 129/369/129 125/185/125
f 128/358/128 132/196/132 130/198/130
f 110/161/110 132/196/132 128/358/128
f 133/197/133 135/370/135 130/198/130
f 131/194/131 125/200/125 129/192/129
f 127/262/127 125/200/125 134/199/134
f 179/263/179 127/262/127 134/199/134
f 86/120/86 85/119/85 136/361/136
f 137/203/137 88/205/88 87/122/87
f 159/234/159 140/207/140 162/238/162
f 140/207/140 159/234/159 139/206/139
f 146/216/146 143/211/143 142/210/142
f 143/211/143 162/371/162 140/208/140
f 162/371/162 143/211/143 148/218/148
f 140/208/140 138/204/138 142/210/142
f 146/214/146 142/372/142 156/229/156
f 156/229/156 144/212/144 146/214/146
f 148/218/148 143/211/143 146/216/146
f 152/225/152 154/227/154 149/223/149
f 151/224/151 153/226/153 152/225/152
f 156/229/156 142/372/142 141/230/141
f 155/269/155 158/233/158 120/231/120
f 120/231/120 158/233/158 156/229/156
f 144/212/144 150/222/150 145/213/145
f 150/222/150 156/229/156 158/233/158
f 162/238/162 148/221/148 164/240/164
f 162/238/162 164/240/164 163/239/163
f 164/240/164 161/237/161 163/239/163
f 148/221/148 149/220/149 164/240/164
f 170/248/170 168/373/168 166/242/166
f 170/248/170 171/250/171 168/373/168
f 124/183/124 123/182/123 174/254/174
f 127/188/127 123/252/123 126/186/126
f 196/291/196 197/293/197 174/254/174
f 174/254/174 197/293/197 173/253/173
f 172/251/172 174/256/174 123/252/123
f 175/255/175 196/290/196 174/256/174
f 124/257/124 176/259/176 155/269/155
f 155/269/155 176/259/176 182/267/182
f 178/261/178 173/258/173 197/306/197
f 181/374/181 180/375/180 223/376/223
f 181/377/181 175/378/175 172/379/172
f 155/269/155 157/232/157 158/233/158
f 189/280/189 157/232/157 183/268/183
f 182/267/182 176/259/176 183/268/183
f 189/280/189 183/268/183 184/270/184
f 153/276/153 187/278/187 169/380/169
f 189/280/189 188/282/188 157/232/157
f 188/275/188 193/287/193 187/273/187
f 167/381/167 187/273/187 193/287/193
f 187/278/187 167/382/167 169/380/169
f 171/383/171 169/247/169 168/246/168
f 153/384/153 169/247/169 171/383/171
f 171/250/171 154/249/154 153/385/153
f 191/285/191 192/286/192 190/283/190
f 195/386/195 206/387/206 197/388/197
f 194/304/194 200/389/200 195/390/195
f 206/391/206 195/294/195 199/296/199
f 201/392/201 198/295/198 200/297/200
f 203/393/203 204/302/204 194/304/194
f 200/389/200 194/304/194 201/303/201
f 209/394/209 201/303/201 224/395/224
f 224/395/224 201/303/201 205/305/205
f 206/307/206 211/315/211 178/261/178
f 206/391/206 199/296/199 198/295/198
f 202/300/202 207/309/207 198/298/198
f 206/308/206 207/309/207 211/316/211
f 201/396/201 209/312/209 202/311/202
f 216/325/216 210/314/210 209/312/209
f 211/316/211 212/319/212 186/318/186
f 212/319/212 211/316/211 208/310/208
f 191/323/191 185/317/185 212/319/212
f 209/312/209 224/397/224 215/324/215
f 210/314/210 216/325/216 213/320/213
f 216/325/216 214/326/214 213/320/213
f 217/327/217 214/326/214 216/325/216
f 214/330/214 192/286/192 191/285/191
f 203/393/203 205/305/205 204/302/204
f 225/398/225 205/399/205 203/400/203
f 16/19/16 15/18/15 226/401/226
f 15/18/15 220/342/220 226/401/226
f 220/342/220 227/402/227 226/401/226
f 220/342/220 36/54/36 227/402/227
f 226/401/226 227/402/227 228/403/228
f 229/404/229 230/405/230 228/403/228
f 4/5/4 16/19/16 230/405/230
f 24/43/24 231/406/231 27/344/27
f 20/29/20 231/407/231 24/30/24
f 232/408/232 231/407/231 233/409/233
f 229/404/229 30/39/30 29/38/29
f 27/344/27 231/406/231 234/410/234
f 231/407/231 232/408/232 234/411/234
f 235/412/235 234/411/234 232/408/232
f 222/413/222 235/414/235 233/415/233
f 57/79/57 56/78/56 235/414/235
f 56/78/56 99/148/99 235/414/235
f 133/197/133 236/416/236 135/370/135
f 237/417/237 179/418/179 134/419/134
f 237/420/237 236/421/236 238/422/238
f 161/423/161 239/424/239 112/425/112
f 112/425/112 239/424/239 132/426/132
f 239/424/239 133/427/133 132/426/132
f 165/245/165 239/424/239 161/423/161
f 165/245/165 167/244/167 240/428/240
f 239/424/239 238/429/238 236/430/236
f 240/428/240 238/429/238 239/424/239
f 237/417/237 241/431/241 180/375/180
f 238/422/238 241/432/241 237/420/237
f 242/433/242 223/376/223 241/431/241
f 243/434/243 244/435/244 241/432/241
f 244/435/244 242/436/242 241/432/241
f 238/429/238 245/437/245 243/438/243
f 243/438/243 245/437/245 246/439/246
f 215/324/215 247/440/247 216/325/216
f 246/441/246 217/327/217 216/325/216
f 248/442/248 246/441/246 216/325/216
f 218/443/218 246/439/246 245/437/245
f 249/444/249 181/374/181 223/376/223
f 181/377/181 249/445/249 175/378/175
f 225/398/225 203/400/203 249/446/249
f 175/447/175 249/446/249 203/400/203
f 249/444/249 223/376/223 242/433/242
f 250/448/250 249/446/249 242/449/242
f 249/446/249 251/450/251 225/398/225
f 230/405/230 219/332/219 4/5/4
f 230/405/230 29/38/29 219/332/219
f 252/451/252 228/403/228 227/402/227
f 252/451/252 52/73/52 30/39/30
f 229/404/229 29/38/29 230/405/230
f 16/19/16 226/401/226 230/405/230
f 230/405/230 226/401/226 228/403/228
f 252/451/252 30/39/30 229/404/229
f 228/403/228 252/451/252 229/404/229
f 20/29/20 233/409/233 231/407/231
f 235/412/235 232/408/232 233/409/233
f 22/27/22 233/452/233 20/25/20
f 227/402/227 52/73/52 252/451/252
f 37/50/37 52/73/52 227/402/227
f 227/402/227 36/54/36 37/50/37
f 50/136/50 27/344/27 234/410/234
f 97/142/97 234/411/234 235/412/235
f 98/143/98 97/142/97 235/412/235
f 99/144/99 98/143/98 235/412/235
f 93/137/93 50/136/50 234/410/234
f 97/356/97 93/137/93 234/410/234
f 222/349/222 233/452/233 22/27/22
f 57/79/57 235/414/235 222/413/222
f 237/453/237 135/370/135 236/416/236
f 135/454/135 237/417/237 134/419/134
f 179/418/179 237/417/237 180/375/180
f 239/424/239 165/245/165 240/428/240
f 167/244/167 245/437/245 240/428/240
f 239/424/239 236/430/236 133/427/133
f 245/437/245 238/429/238 240/428/240
f 241/431/241 223/376/223 180/375/180
f 193/455/193 245/437/245 167/244/167
f 193/455/193 192/456/192 245/437/245
f 241/432/241 238/422/238 243/434/243
f 242/436/242 244/435/244 246/457/246
f 248/458/248 247/459/247 250/460/250
f 246/461/246 248/462/248 250/463/250
f 246/457/246 244/435/244 243/434/243
f 216/325/216 247/440/247 248/442/248
f 217/327/217 246/441/246 218/328/218
f 192/456/192 218/443/218 245/437/245
f 225/398/225 251/450/251 205/399/205
f 251/464/251 215/324/215 224/397/224
f 251/465/251 224/395/224 205/305/205
f 247/440/247 215/324/215 251/464/251
f 250/466/250 242/436/242 246/457/246
f 247/459/247 251/467/251 250/460/250
f 249/446/249 250/448/250 251/450/251

